<svg width="237" height="71" viewBox="0 0 237 71" fill="none" xmlns="http://www.w3.org/2000/svg">
<path d="M12.8386 34.384C10.2786 34.384 8.03862 33.984 6.11862 33.184C4.19862 32.352 2.71062 31.184 1.65462 29.68C0.630622 28.144 0.118622 26.368 0.118622 24.352V23.296C0.118622 23.136 0.166622 23.008 0.262622 22.912C0.390622 22.784 0.534622 22.72 0.694622 22.72H6.16662C6.32662 22.72 6.45462 22.784 6.55062 22.912C6.67862 23.008 6.74262 23.136 6.74262 23.296V24.016C6.74262 25.296 7.33462 26.384 8.51862 27.28C9.70262 28.144 11.3026 28.576 13.3186 28.576C15.0146 28.576 16.2786 28.224 17.1106 27.52C17.9426 26.784 18.3586 25.888 18.3586 24.832C18.3586 24.064 18.1026 23.424 17.5906 22.912C17.0786 22.368 16.3746 21.904 15.4786 21.52C14.6146 21.104 13.2226 20.544 11.3026 19.84C9.15862 19.104 7.33462 18.352 5.83062 17.584C4.35862 16.816 3.11062 15.776 2.08662 14.464C1.09462 13.12 0.598622 11.472 0.598622 9.51999C0.598622 7.59999 1.09462 5.91999 2.08662 4.47999C3.07862 3.03999 4.45462 1.93599 6.21462 1.16799C7.97462 0.399991 10.0066 0.0159912 12.3106 0.0159912C14.7426 0.0159912 16.9026 0.44799 18.7906 1.31199C20.7106 2.17599 22.1986 3.39199 23.2546 4.95999C24.3426 6.49599 24.8866 8.28799 24.8866 10.336V11.056C24.8866 11.216 24.8226 11.36 24.6946 11.488C24.5986 11.584 24.4706 11.632 24.3106 11.632H18.7906C18.6306 11.632 18.4866 11.584 18.3586 11.488C18.2626 11.36 18.2146 11.216 18.2146 11.056V10.672C18.2146 9.32799 17.6546 8.19199 16.5346 7.26399C15.4466 6.30399 13.9426 5.82399 12.0226 5.82399C10.5186 5.82399 9.33462 6.14399 8.47062 6.78399C7.63862 7.42399 7.22262 8.30399 7.22262 9.42399C7.22262 10.224 7.46262 10.896 7.94262 11.44C8.45462 11.984 9.19062 12.48 10.1506 12.928C11.1426 13.344 12.6626 13.92 14.7106 14.656C16.9826 15.488 18.7586 16.224 20.0386 16.864C21.3506 17.504 22.5186 18.464 23.5426 19.744C24.5986 20.992 25.1266 22.624 25.1266 24.64C25.1266 27.648 24.0226 30.032 21.8146 31.792C19.6066 33.52 16.6146 34.384 12.8386 34.384Z" fill="#E4E9E9"/>
<path d="M53.1935 5.63199C53.1935 5.79199 53.1295 5.93599 53.0015 6.06399C52.9055 6.15999 52.7775 6.20799 52.6175 6.20799H36.8735C36.7135 6.20799 36.6335 6.28799 36.6335 6.44799V13.888C36.6335 14.048 36.7135 14.128 36.8735 14.128H47.1935C47.3535 14.128 47.4815 14.192 47.5775 14.32C47.7055 14.416 47.7695 14.544 47.7695 14.704V19.36C47.7695 19.52 47.7055 19.664 47.5775 19.792C47.4815 19.888 47.3535 19.936 47.1935 19.936H36.8735C36.7135 19.936 36.6335 20.016 36.6335 20.176V27.952C36.6335 28.112 36.7135 28.192 36.8735 28.192H52.6175C52.7775 28.192 52.9055 28.256 53.0015 28.384C53.1295 28.48 53.1935 28.608 53.1935 28.768V33.424C53.1935 33.584 53.1295 33.728 53.0015 33.856C52.9055 33.952 52.7775 34 52.6175 34H30.4415C30.2815 34 30.1375 33.952 30.0095 33.856C29.9135 33.728 29.8655 33.584 29.8655 33.424V0.97599C29.8655 0.81599 29.9135 0.68799 30.0095 0.59199C30.1375 0.463989 30.2815 0.399989 30.4415 0.399989H52.6175C52.7775 0.399989 52.9055 0.463989 53.0015 0.59199C53.1295 0.68799 53.1935 0.81599 53.1935 0.97599V5.63199Z" fill="#E4E9E9"/>
<path d="M79.2568 34C78.9368 34 78.7288 33.84 78.6328 33.52L77.1927 28.816C77.1287 28.688 77.0488 28.624 76.9528 28.624H65.1447C65.0487 28.624 64.9687 28.688 64.9047 28.816L63.5127 33.52C63.4167 33.84 63.2087 34 62.8887 34H56.7927C56.6007 34 56.4567 33.952 56.3607 33.856C56.2647 33.728 56.2487 33.552 56.3127 33.328L66.6807 0.879989C66.7767 0.559989 66.9847 0.399989 67.3047 0.399989H74.8408C75.1608 0.399989 75.3687 0.559989 75.4647 0.879989L85.8327 33.328C85.8647 33.392 85.8808 33.472 85.8808 33.568C85.8808 33.856 85.7047 34 85.3527 34H79.2568ZM66.6327 23.104C66.6007 23.296 66.6647 23.392 66.8247 23.392H75.2728C75.4648 23.392 75.5287 23.296 75.4647 23.104L71.1447 8.84799C71.1127 8.71999 71.0647 8.67199 71.0007 8.70399C70.9367 8.70399 70.8888 8.75199 70.8568 8.84799L66.6327 23.104Z" fill="#E4E9E9"/>
<path d="M108.532 34C108.212 34 107.988 33.856 107.86 33.568L101.86 20.272C101.796 20.144 101.7 20.08 101.572 20.08H97.1079C96.9479 20.08 96.8679 20.16 96.8679 20.32V33.424C96.8679 33.584 96.8039 33.728 96.6759 33.856C96.5799 33.952 96.4519 34 96.2919 34H90.6759C90.5159 34 90.3719 33.952 90.2439 33.856C90.1479 33.728 90.0999 33.584 90.0999 33.424V0.97599C90.0999 0.81599 90.1479 0.68799 90.2439 0.59199C90.3719 0.463989 90.5159 0.399989 90.6759 0.399989H104.404C106.452 0.399989 108.244 0.815989 109.78 1.64799C111.348 2.47999 112.548 3.66399 113.38 5.19999C114.244 6.73599 114.676 8.51199 114.676 10.528C114.676 12.704 114.132 14.576 113.044 16.144C111.956 17.68 110.436 18.768 108.484 19.408C108.324 19.472 108.276 19.584 108.34 19.744L114.868 33.328C114.932 33.456 114.964 33.552 114.964 33.616C114.964 33.872 114.788 34 114.436 34H108.532ZM97.1079 6.20799C96.9479 6.20799 96.8679 6.28799 96.8679 6.44799V14.656C96.8679 14.816 96.9479 14.896 97.1079 14.896H103.396C104.74 14.896 105.828 14.496 106.66 13.696C107.524 12.896 107.956 11.856 107.956 10.576C107.956 9.29599 107.524 8.25599 106.66 7.45599C105.828 6.62399 104.74 6.20799 103.396 6.20799H97.1079Z" fill="#E4E9E9"/>
<path d="M131.392 34.384C128.896 34.384 126.704 33.904 124.816 32.944C122.928 31.952 121.472 30.576 120.448 28.816C119.424 27.056 118.912 25.024 118.912 22.72V11.632C118.912 9.32799 119.424 7.29599 120.448 5.53599C121.472 3.77599 122.928 2.41599 124.816 1.45599C126.704 0.495991 128.896 0.0159912 131.392 0.0159912C133.856 0.0159912 136.016 0.479991 137.872 1.40799C139.76 2.30399 141.216 3.59999 142.24 5.29599C143.296 6.95999 143.824 8.89599 143.824 11.104C143.824 11.392 143.632 11.568 143.248 11.632L137.632 11.968H137.536C137.216 11.968 137.056 11.792 137.056 11.44C137.056 9.74399 136.528 8.38399 135.472 7.35999C134.448 6.33599 133.088 5.82399 131.392 5.82399C129.664 5.82399 128.272 6.33599 127.216 7.35999C126.192 8.38399 125.68 9.74399 125.68 11.44V23.008C125.68 24.672 126.192 26.016 127.216 27.04C128.272 28.064 129.664 28.576 131.392 28.576C133.088 28.576 134.448 28.064 135.472 27.04C136.528 26.016 137.056 24.672 137.056 23.008C137.056 22.656 137.248 22.48 137.632 22.48L143.248 22.72C143.408 22.72 143.536 22.768 143.632 22.864C143.76 22.96 143.824 23.072 143.824 23.2C143.824 25.408 143.296 27.36 142.24 29.056C141.216 30.752 139.76 32.064 137.872 32.992C136.016 33.92 133.856 34.384 131.392 34.384Z" fill="#E4E9E9"/>
<path d="M166.643 0.97599C166.643 0.81599 166.691 0.68799 166.787 0.59199C166.915 0.463989 167.059 0.399989 167.219 0.399989H172.835C172.995 0.399989 173.123 0.463989 173.219 0.59199C173.347 0.68799 173.411 0.81599 173.411 0.97599V33.424C173.411 33.584 173.347 33.728 173.219 33.856C173.123 33.952 172.995 34 172.835 34H167.219C167.059 34 166.915 33.952 166.787 33.856C166.691 33.728 166.643 33.584 166.643 33.424V20.176C166.643 20.016 166.563 19.936 166.403 19.936H155.795C155.635 19.936 155.555 20.016 155.555 20.176V33.424C155.555 33.584 155.491 33.728 155.363 33.856C155.267 33.952 155.139 34 154.979 34H149.363C149.203 34 149.059 33.952 148.931 33.856C148.835 33.728 148.787 33.584 148.787 33.424V0.97599C148.787 0.81599 148.835 0.68799 148.931 0.59199C149.059 0.463989 149.203 0.399989 149.363 0.399989H154.979C155.139 0.399989 155.267 0.463989 155.363 0.59199C155.491 0.68799 155.555 0.81599 155.555 0.97599V13.888C155.555 14.048 155.635 14.128 155.795 14.128H166.403C166.563 14.128 166.643 14.048 166.643 13.888V0.97599Z" fill="#E4E9E9"/>
<path d="M54.083 41.632C54.083 41.792 54.019 41.936 53.891 42.064C53.795 42.16 53.667 42.208 53.507 42.208H37.811C37.651 42.208 37.571 42.288 37.571 42.448V49.888C37.571 50.048 37.651 50.128 37.811 50.128H48.131C48.291 50.128 48.419 50.192 48.515 50.32C48.643 50.416 48.707 50.544 48.707 50.704V55.36C48.707 55.52 48.643 55.664 48.515 55.792C48.419 55.888 48.291 55.936 48.131 55.936H37.811C37.651 55.936 37.571 56.016 37.571 56.176V69.424C37.571 69.584 37.507 69.728 37.379 69.856C37.283 69.952 37.155 70 36.995 70H31.379C31.219 70 31.075 69.952 30.947 69.856C30.851 69.728 30.803 69.584 30.803 69.424V36.976C30.803 36.816 30.851 36.688 30.947 36.592C31.075 36.464 31.219 36.4 31.379 36.4H53.507C53.667 36.4 53.795 36.464 53.891 36.592C54.019 36.688 54.083 36.816 54.083 36.976V41.632Z" fill="#E4E9E9"/>
<path d="M69.5675 70.528C67.0715 70.528 64.8635 70.016 62.9435 68.992C61.0555 67.968 59.5835 66.544 58.5275 64.72C57.4715 62.864 56.9435 60.736 56.9435 58.336V48.064C56.9435 45.696 57.4715 43.6 58.5275 41.776C59.5835 39.952 61.0555 38.544 62.9435 37.552C64.8635 36.528 67.0715 36.016 69.5675 36.016C72.0955 36.016 74.3035 36.528 76.1915 37.552C78.1115 38.544 79.5995 39.952 80.6555 41.776C81.7115 43.6 82.2395 45.696 82.2395 48.064V58.336C82.2395 60.736 81.7115 62.864 80.6555 64.72C79.5995 66.576 78.1115 68.016 76.1915 69.04C74.3035 70.032 72.0955 70.528 69.5675 70.528ZM69.5675 64.72C71.3275 64.72 72.7515 64.16 73.8395 63.04C74.9275 61.92 75.4715 60.432 75.4715 58.576V48.016C75.4715 46.16 74.9275 44.672 73.8395 43.552C72.7835 42.4 71.3595 41.824 69.5675 41.824C67.8075 41.824 66.3835 42.4 65.2955 43.552C64.2395 44.672 63.7115 46.16 63.7115 48.016V58.576C63.7115 60.432 64.2395 61.92 65.2955 63.04C66.3835 64.16 67.8075 64.72 69.5675 64.72Z" fill="#E4E9E9"/>
<path d="M99.62 70.384C97.156 70.384 94.98 69.904 93.092 68.944C91.236 67.984 89.78 66.64 88.724 64.912C87.7 63.152 87.188 61.136 87.188 58.864V36.976C87.188 36.816 87.236 36.688 87.332 36.592C87.46 36.464 87.604 36.4 87.764 36.4H93.38C93.54 36.4 93.668 36.464 93.764 36.592C93.892 36.688 93.956 36.816 93.956 36.976V58.912C93.956 60.608 94.468 61.984 95.492 63.04C96.548 64.064 97.924 64.576 99.62 64.576C101.316 64.576 102.676 64.064 103.7 63.04C104.756 61.984 105.284 60.608 105.284 58.912V36.976C105.284 36.816 105.332 36.688 105.428 36.592C105.556 36.464 105.7 36.4 105.86 36.4H111.476C111.636 36.4 111.764 36.464 111.86 36.592C111.988 36.688 112.052 36.816 112.052 36.976V58.864C112.052 61.136 111.524 63.152 110.468 64.912C109.444 66.64 107.988 67.984 106.1 68.944C104.244 69.904 102.084 70.384 99.62 70.384Z" fill="#E4E9E9"/>
<path d="M136.911 36.976C136.911 36.816 136.959 36.688 137.055 36.592C137.183 36.464 137.328 36.4 137.488 36.4H143.104C143.264 36.4 143.392 36.464 143.488 36.592C143.616 36.688 143.68 36.816 143.68 36.976V69.424C143.68 69.584 143.616 69.728 143.488 69.856C143.392 69.952 143.264 70 143.104 70H137.68C137.36 70 137.135 69.872 137.007 69.616L124.576 49.072C124.512 48.976 124.447 48.944 124.383 48.976C124.319 48.976 124.287 49.04 124.287 49.168L124.383 69.424C124.383 69.584 124.319 69.728 124.191 69.856C124.095 69.952 123.967 70 123.807 70H118.191C118.031 70 117.887 69.952 117.759 69.856C117.663 69.728 117.615 69.584 117.615 69.424V36.976C117.615 36.816 117.663 36.688 117.759 36.592C117.887 36.464 118.031 36.4 118.191 36.4H123.615C123.935 36.4 124.159 36.528 124.287 36.784L136.671 57.232C136.735 57.328 136.799 57.376 136.863 57.376C136.927 57.344 136.96 57.264 136.96 57.136L136.911 36.976Z" fill="#E4E9E9"/>
<path d="M149.832 70C149.672 70 149.528 69.952 149.4 69.856C149.304 69.728 149.256 69.584 149.256 69.424V36.976C149.256 36.816 149.304 36.688 149.4 36.592C149.528 36.464 149.672 36.4 149.832 36.4H161.832C164.232 36.4 166.328 36.832 168.12 37.696C169.944 38.528 171.352 39.712 172.344 41.248C173.336 42.784 173.832 44.56 173.832 46.576V59.824C173.832 61.84 173.336 63.616 172.344 65.152C171.352 66.688 169.944 67.888 168.12 68.752C166.328 69.584 164.232 70 161.832 70H149.832ZM156.024 63.952C156.024 64.112 156.104 64.192 156.264 64.192H162.072C163.544 64.192 164.728 63.696 165.624 62.704C166.552 61.712 167.032 60.384 167.064 58.72V47.68C167.064 46.016 166.6 44.688 165.672 43.696C164.776 42.704 163.56 42.208 162.024 42.208H156.264C156.104 42.208 156.024 42.288 156.024 42.448V63.952Z" fill="#E4E9E9"/>
<path d="M236.139 68.824C236.335 69.02 236.433 69.216 236.433 69.412C236.433 69.804 236.172 70 235.649 70H227.221C226.764 70 226.372 69.804 226.045 69.412L221.047 63.728C220.916 63.532 220.72 63.4993 220.459 63.63C217.388 66.1127 214.22 67.942 210.953 69.118C207.686 70.2287 204.224 70.784 200.565 70.784C194.685 70.784 189.85 69.412 186.061 66.668C182.337 63.8587 180.475 59.7753 180.475 54.418C180.475 49.91 181.716 46.1207 184.199 43.05C186.747 39.914 190.21 36.9087 194.587 34.034C194.848 33.9033 194.881 33.74 194.685 33.544C191.026 29.1013 188.609 25.7367 187.433 23.45C186.257 21.098 185.669 18.6807 185.669 16.198C185.669 13.258 186.388 10.612 187.825 8.25999C189.328 5.84265 191.418 3.98065 194.097 2.67399C196.841 1.30199 199.944 0.615991 203.407 0.615991C208.764 0.615991 213.174 2.08599 216.637 5.02599C220.1 7.96599 221.831 11.8207 221.831 16.59C221.831 20.5753 220.622 24.0707 218.205 27.076C215.853 30.016 212.586 32.8907 208.405 35.7C208.144 35.7653 208.111 35.9287 208.307 36.19C210.79 39.1953 214.873 43.932 220.557 50.4L220.949 50.89C221.014 51.0207 221.112 51.086 221.243 51.086C221.374 51.086 221.472 51.0533 221.537 50.988C224.412 47.3947 226.535 44.618 227.907 42.658C228.234 42.1353 228.658 42.0373 229.181 42.364L234.767 45.5C235.355 45.8267 235.453 46.284 235.061 46.872C232.186 51.2493 229.475 54.7773 226.927 57.456V57.652C226.927 57.7827 227.025 58.0113 227.221 58.338C229.508 61.082 232.48 64.5773 236.139 68.824ZM203.701 9.23999C201.088 9.23999 198.997 9.95866 197.429 11.396C195.861 12.768 195.077 14.63 195.077 16.982C195.077 18.2887 195.502 19.726 196.351 21.294C197.266 22.7967 199.16 25.3447 202.035 28.938C202.231 29.134 202.427 29.1667 202.623 29.036C205.824 26.9453 208.242 24.9527 209.875 23.058C211.574 21.1633 212.423 19.0727 212.423 16.786C212.423 14.4993 211.606 12.67 209.973 11.298C208.34 9.92599 206.249 9.23999 203.701 9.23999ZM200.663 62.748C205.302 62.748 210.038 60.9513 214.873 57.358C215.069 57.162 215.069 56.966 214.873 56.77L211.541 52.752C209.581 50.5307 208.405 49.224 208.013 48.832L200.859 40.796C200.794 40.6 200.63 40.5673 200.369 40.698C196.972 42.9193 194.391 45.0753 192.627 47.166C190.863 49.2567 189.981 51.6413 189.981 54.32C189.981 56.9333 190.928 58.9913 192.823 60.494C194.783 61.9967 197.396 62.748 200.663 62.748Z" fill="#E4E9E9"/>
</svg>
