<svg width="32" height="32" viewBox="0 0 32 32" fill="none" xmlns="http://www.w3.org/2000/svg">
<rect width="32" height="32" rx="4" fill="#0A7B8A"/>
<path d="M21.3335 9.33334H22.3335C22.3335 8.78105 21.8858 8.33334 21.3335 8.33334V9.33334ZM10.6678 9.33334V8.33334C10.1155 8.33334 9.66778 8.78105 9.66778 9.33334H10.6678ZM21.3335 13.8663V14.8663C21.8858 14.8663 22.3335 14.4185 22.3335 13.8663H21.3335ZM21.3324 13.8663V12.8663C20.7801 12.8663 20.3324 13.314 20.3324 13.8663H21.3324ZM21.3324 13.8663L21.9324 14.6663C22.1842 14.4774 22.3324 14.181 22.3324 13.8663H21.3324ZM17.5994 16.666L16.9994 15.866C16.7476 16.0549 16.5994 16.3513 16.5994 16.666H17.5994ZM17.5994 21.7034L18.0228 22.6094C18.3746 22.445 18.5994 22.0918 18.5994 21.7034H17.5994ZM14.3997 23.1987H13.3997C13.3997 23.5406 13.5743 23.8588 13.8627 24.0423C14.1511 24.2259 14.5133 24.2494 14.8231 24.1047L14.3997 23.1987ZM14.3997 16.666H15.3997C15.3997 16.3513 15.2515 16.0549 14.9997 15.866L14.3997 16.666ZM10.6667 13.8663H9.66669C9.66669 14.181 9.81488 14.4774 10.0667 14.6663L10.6667 13.8663ZM10.6667 10.3999V9.39991C10.1144 9.39991 9.66669 9.84763 9.66669 10.3999H10.6667ZM10.6678 10.3999V11.3999C11.2201 11.3999 11.6678 10.9522 11.6678 10.3999H10.6678ZM21.3335 8.33334H10.6678V10.3333H21.3335V8.33334ZM22.3335 13.8663V9.33334H20.3335V13.8663H22.3335ZM21.3324 14.8663H21.3335V12.8663H21.3324V14.8663ZM22.3324 13.8663V13.8663H20.3324V13.8663H22.3324ZM18.1994 17.466L21.9324 14.6663L20.7324 13.0663L16.9994 15.866L18.1994 17.466ZM16.5994 16.666V21.7034H18.5994V16.666H16.5994ZM17.176 20.7975L13.9763 22.2928L14.8231 24.1047L18.0228 22.6094L17.176 20.7975ZM15.3997 23.1987V16.666H13.3997V23.1987H15.3997ZM10.0667 14.6663L13.7997 17.466L14.9997 15.866L11.2667 13.0663L10.0667 14.6663ZM9.66669 10.3999V13.8663H11.6667V10.3999H9.66669ZM10.6678 9.39991H10.6667V11.3999H10.6678V9.39991ZM9.66778 9.33334V10.3999H11.6678V9.33334H9.66778Z" fill="white"/>
<line x1="10.6667" y1="12.6884" x2="21.3324" y2="12.6884" stroke="white" stroke-width="2" stroke-linejoin="round"/>
</svg>
